<svg width="500" height="500" viewBox="0 0 500 500" fill="none" xmlns="http://www.w3.org/2000/svg">
    <style>    
        #freepik--Button--inject-6 {
            animation: 3s Infinite linear heartbeat;
            animation-delay: 0s, 1s;
        }
        
        @keyframes heartbeat {
            0% {
                transform: scale(1);
            }
        
            10% {
                transform: scale(1.1);
            }
        
            30% {
                transform: scale(1);
            }
        
            40% {
                transform: scale(1);
            }
        
            50% {
                transform: scale(1.1);
            }
        
            60% {
                transform: scale(1);
            }
        
            100% {
                transform: scale(1);
            }
        }
        </style>
    <g id="clickHere 1">
        <g id="freepik--Character--inject-6">
            <path id="Vector" d="M283.69 102.27L275.9 172.46C274.57 184.4 270.18 201.66 251.41 198.71C235.31 194.91 232.89 178.93 234.14 167.79C234.73 162.51 235.21 158.1 235.24 157.56C235.24 157.56 217.56 153.89 218.24 136.06C218.57 127.45 220.68 109.75 222.78 93.77C223.87 85.4917 228.038 77.9276 234.453 72.5833C240.868 67.239 249.061 64.5066 257.4 64.93L259.12 65.01C277.6 67 286.21 83.85 283.69 102.27Z" fill="#936760" />
            <path id="Vector_2" d="M235.239 157.56C243.47 157.95 251.639 155.972 258.779 151.86C258.779 151.86 252.469 164.59 234.779 162.09L235.239 157.56Z" fill="#6F4C47" />
            <path id="Vector_3" d="M251.999 104.73C252.309 105.13 254.549 103.73 257.509 104.03C260.469 104.33 262.509 106.03 262.859 105.7C263.039 105.54 262.749 104.85 261.859 104.05C260.669 103.023 259.186 102.396 257.619 102.26C256.073 102.107 254.519 102.457 253.189 103.26C252.259 103.91 251.889 104.55 251.999 104.73Z" fill="#263238" />
            <path id="Vector_4" d="M251.369 110.85C251.333 111.478 251.542 112.095 251.953 112.57C252.364 113.046 252.943 113.344 253.569 113.4C253.875 113.439 254.184 113.417 254.481 113.334C254.777 113.252 255.054 113.111 255.296 112.92C255.537 112.729 255.738 112.492 255.886 112.222C256.034 111.953 256.127 111.656 256.159 111.35C256.195 110.724 255.986 110.108 255.575 109.633C255.164 109.159 254.584 108.864 253.959 108.81C253.655 108.771 253.346 108.793 253.05 108.875C252.754 108.957 252.477 109.097 252.236 109.287C251.995 109.476 251.794 109.713 251.645 109.981C251.497 110.249 251.403 110.545 251.369 110.85V110.85Z" fill="#263238" />
            <path id="Vector_5" d="M242.09 124.38C242.09 124.22 240.43 123.84 237.69 123.38C236.99 123.27 236.34 123.1 236.24 122.62C236.226 121.911 236.424 121.215 236.81 120.62L239.15 115.4C242.4 107.96 244.79 101.83 244.49 101.71C244.19 101.59 241.31 107.5 238.06 114.94C237.266 116.767 236.516 118.517 235.81 120.19C235.323 121.011 235.145 121.98 235.31 122.92C235.397 123.173 235.542 123.402 235.733 123.589C235.924 123.777 236.155 123.917 236.41 124C236.791 124.128 237.188 124.202 237.59 124.22C240.35 124.43 242.07 124.53 242.09 124.38Z" fill="#263238" />
            <path id="Vector_6" d="M254.67 93.7701C254.88 94.4601 257.3 94.2601 260.12 94.7701C262.94 95.2801 265.19 96.1801 265.59 95.5901C265.78 95.3001 265.41 94.5901 264.52 93.9401C263.343 93.0623 261.97 92.4855 260.52 92.2601C259.08 92.0019 257.598 92.1084 256.21 92.5701C255.14 92.9401 254.59 93.4401 254.67 93.7701Z" fill="#263238" />
            <path id="Vector_7" d="M226.88 93.7701C227.13 94.3401 229.51 94.0301 232.31 94.2901C235.11 94.5501 237.399 95.2001 237.759 94.6701C237.919 94.4201 237.52 93.8901 236.6 93.3401C235.366 92.6631 234.002 92.2574 232.6 92.1501C231.167 92.0161 229.722 92.1865 228.36 92.6501C227.29 93.0001 226.78 93.4901 226.88 93.7701Z" fill="#263238" />
            <path id="Vector_8" d="M281.57 115.39C281.88 115.27 294 112.39 293 124.55C292 136.71 280 133.19 280 132.84C280 132.49 281.57 115.39 281.57 115.39Z" fill="#936760" />
            <path id="Vector_9" d="M284.09 128.54C284.15 128.54 284.29 128.71 284.64 128.9C285.125 129.158 285.692 129.216 286.22 129.06C287.54 128.7 288.79 126.75 289.03 124.56C289.148 123.521 289.032 122.468 288.69 121.48C288.607 121.09 288.431 120.727 288.177 120.42C287.922 120.114 287.597 119.873 287.23 119.72C286.991 119.637 286.731 119.639 286.494 119.727C286.256 119.814 286.057 119.982 285.93 120.2C285.74 120.52 285.8 120.77 285.73 120.79C285.66 120.81 285.49 120.56 285.63 120.07C285.719 119.774 285.91 119.519 286.17 119.35C286.522 119.123 286.95 119.044 287.36 119.13C287.851 119.271 288.298 119.535 288.659 119.898C289.019 120.26 289.281 120.708 289.42 121.2C289.857 122.294 290.015 123.48 289.88 124.65C289.6 127.1 288.16 129.29 286.36 129.65C286.024 129.718 285.678 129.71 285.345 129.627C285.013 129.544 284.704 129.388 284.44 129.17C284.09 128.84 284.05 128.56 284.09 128.54Z" fill="#6F4C47" />
            <path id="Vector_10" d="M243.91 133.11C243.82 132.79 246.28 132.37 248.22 130.35C249.032 129.461 249.725 128.469 250.28 127.4C250.74 126.56 251.08 126.04 251.21 126.1C251.34 126.16 251.21 126.75 250.91 127.68C250.497 128.927 249.814 130.067 248.91 131.02C247.989 131.986 246.819 132.678 245.53 133.02C244.56 133.27 243.93 133.22 243.91 133.11Z" fill="#263238" />
            <path id="Vector_11" d="M225.999 100.9C226.309 101.3 228.549 99.8999 231.509 100.2C234.469 100.5 236.509 102.2 236.859 101.86C237.039 101.71 236.749 101.02 235.859 100.22C234.672 99.1883 233.187 98.5614 231.619 98.4299C230.073 98.2766 228.519 98.6274 227.189 99.4299C226.229 100.08 225.859 100.72 225.999 100.9Z" fill="#263238" />
            <path id="Vector_12" d="M225.8 107.69C225.764 108.318 225.973 108.935 226.384 109.411C226.794 109.886 227.374 110.184 228 110.24C228.301 110.279 228.608 110.259 228.901 110.179C229.195 110.1 229.47 109.964 229.71 109.778C229.951 109.592 230.152 109.36 230.303 109.097C230.454 108.833 230.552 108.542 230.59 108.24C230.631 107.614 230.425 106.997 230.015 106.521C229.606 106.046 229.025 105.751 228.4 105.7C228.098 105.658 227.791 105.676 227.497 105.754C227.202 105.831 226.926 105.966 226.684 106.152C226.442 106.337 226.239 106.568 226.088 106.832C225.936 107.096 225.838 107.388 225.8 107.69Z" fill="#263238" />
            <path id="Vector_13" d="M291.18 104.51C290.29 107.9 288.18 115.63 285.18 114.94C279.18 113.58 279.53 123.2 276.63 122.07C273.73 120.94 273.05 113.29 273.38 110.24C274.38 100.71 278.04 93.87 274.01 82.99C272.76 80.8311 270.973 79.0314 268.824 77.7648C266.674 76.4982 264.234 75.8077 261.74 75.76C259.226 75.7617 256.755 76.4056 254.56 77.6307C252.366 78.8558 250.521 80.6214 249.2 82.76C248.58 79.43 246.84 74.43 243.83 72.89C242.324 72.1041 240.619 71.7798 238.929 71.9577C237.239 72.1356 235.64 72.8077 234.33 73.89C233.08 75.0377 232.29 76.6002 232.106 78.287C231.922 79.9738 232.357 81.6699 233.33 83.06C232.645 83.2804 231.908 83.2761 231.226 83.0475C230.544 82.819 229.953 82.3784 229.54 81.79C229.499 82.5726 229.619 83.3554 229.892 84.0898C230.166 84.8243 230.587 85.4948 231.13 86.06C229.896 85.785 228.803 85.075 228.05 84.06L229.05 88.18C224.05 88.43 218.96 83.67 217.46 79.36C215.19 72.82 216.67 66.14 220.21 60.2C223.75 54.26 230.21 49.98 237.21 49.88C244.21 49.78 250 52.93 252.81 59.25C257.23 55.97 266.3 54.66 271.35 56.82C273.875 57.9321 276.074 59.6719 277.737 61.8739C279.4 64.0759 280.471 66.6668 280.85 69.4C283.95 68.01 287.73 68.95 290.42 71.03L291.07 71.57C292.87 73.207 294.225 75.2739 295.009 77.5772C295.792 79.8806 295.978 82.345 295.55 84.74C295.23 86.66 294.61 88.66 294.26 90.21C293.08 94.8 291.18 104.51 291.18 104.51Z" fill="#263238" />
            <path id="Vector_14" d="M228.679 81.53C228.679 81.53 228.519 81.44 228.269 81.22C227.9 80.9025 227.565 80.5472 227.269 80.16C226.126 78.7175 225.403 76.9873 225.179 75.16C224.978 73.8118 225.067 72.4359 225.441 71.125C225.816 69.8141 226.466 68.5986 227.349 67.56C228.432 66.2808 229.81 65.2845 231.364 64.6572C232.918 64.03 234.602 63.7907 236.269 63.96C237.985 64.175 239.63 64.7768 241.079 65.72C242.431 66.5709 243.642 67.6269 244.669 68.85C246.413 70.8862 247.699 73.2734 248.439 75.85C248.938 77.5887 249.177 79.3915 249.149 81.2C249.149 81.84 249.089 82.33 249.039 82.66C249.03 82.8297 248.999 82.9976 248.949 83.16C249.058 80.7259 248.768 78.2903 248.089 75.95C247.318 73.4301 246.027 71.0999 244.299 69.11C242.264 66.6133 239.387 64.9456 236.209 64.42C234.625 64.2657 233.027 64.494 231.55 65.0856C230.073 65.6773 228.759 66.6151 227.719 67.82C226.868 68.806 226.235 69.9607 225.861 71.2083C225.487 72.4559 225.381 73.7685 225.549 75.06C225.728 76.8407 226.369 78.5438 227.409 80C228.159 81.05 228.709 81.49 228.679 81.53Z" fill="#455A64" />
            <path id="Vector_15" d="M226.489 86.8501C226.344 86.6785 226.22 86.4906 226.119 86.2901C225.889 85.9101 225.559 85.2901 225.119 84.6101C223.936 82.5437 222.958 80.3667 222.199 78.1101C221.689 76.5332 221.389 74.8956 221.309 73.2401C221.211 71.3252 221.514 69.4109 222.199 67.6201C222.998 65.6353 224.365 63.9307 226.129 62.7201C228.014 61.4283 230.202 60.6494 232.479 60.4601C234.745 60.2856 237.022 60.5958 239.159 61.3701C241.143 62.0856 243.008 63.0971 244.689 64.3701C247.623 66.443 249.789 69.428 250.849 72.8601C251.509 75.1876 251.443 77.6612 250.659 79.9501C250.439 80.5603 250.157 81.1466 249.819 81.7001C249.702 81.8945 249.568 82.0785 249.419 82.2501C249.817 81.489 250.152 80.6963 250.419 79.8801C251.104 77.6243 251.104 75.2159 250.419 72.9601C249.337 69.6335 247.199 66.751 244.329 64.7501C240.974 62.1531 236.809 60.825 232.569 61.0001C230.38 61.1884 228.276 61.9356 226.459 63.1701C224.774 64.322 223.464 65.942 222.689 67.8301C222.015 69.5546 221.705 71.4 221.779 73.2501C221.841 74.8717 222.114 76.4785 222.589 78.0301C223.314 80.2763 224.234 82.4547 225.339 84.5401L226.209 86.2701C226.32 86.4546 226.413 86.6487 226.489 86.8501Z" fill="#455A64" />
            <path id="Vector_16" d="M286.85 97C286.79 96.92 287.92 96.09 289.31 94.35C291.137 92.1029 292.37 89.4321 292.894 86.5836C293.419 83.7351 293.218 80.8004 292.31 78.05C291.62 75.93 290.86 74.75 290.95 74.71C291.04 74.67 291.19 74.96 291.52 75.51C291.974 76.2795 292.356 77.0897 292.66 77.93C293.689 80.7263 293.948 83.7479 293.41 86.6787C292.872 89.6095 291.556 92.3419 289.6 94.5899C289.017 95.2659 288.374 95.8883 287.68 96.4499C287.431 96.6723 287.152 96.8576 286.85 97V97Z" fill="#455A64" />
            <path id="Vector_17" d="M276.119 96.9001C276.119 96.8501 276.699 96.6201 277.619 95.9601C278.9 95.0369 279.9 93.777 280.509 92.3201L280.969 91.1801L280.889 92.4101C280.779 94.0701 280.649 95.9801 280.519 98.0601L280.129 97.8401C281.786 96.6479 283.191 95.1401 284.264 93.4035C285.336 91.6668 286.055 89.7354 286.379 87.7201C286.65 85.8783 286.596 84.0033 286.219 82.1801C285.818 80.5056 285.221 78.8843 284.439 77.3501C284.527 77.4374 284.604 77.5347 284.669 77.6401C284.865 77.9235 285.045 78.2172 285.209 78.5201C285.819 79.6479 286.277 80.8517 286.569 82.1001C287.272 85.0979 287.061 88.2377 285.964 91.1145C284.866 93.9913 282.931 96.4732 280.409 98.2401L279.979 98.5401V98.0201L280.449 92.3801L280.839 92.4701C280.178 93.9765 279.09 95.256 277.709 96.1501C277.336 96.39 276.941 96.5942 276.529 96.7601C276.399 96.8229 276.261 96.8699 276.119 96.9001V96.9001Z" fill="#455A64" />
            <path id="Vector_18" d="M272.279 72.1699C271.567 70.8885 270.612 69.7576 269.469 68.8399C268.209 67.8958 266.742 67.2651 265.189 66.9999C263.28 66.6897 261.321 66.9111 259.529 67.6399C257.731 68.3598 256.13 69.4979 254.859 70.9599C253.826 72.1498 252.995 73.5011 252.399 74.9599C251.894 76.3439 251.496 77.7648 251.209 79.2099C251.17 78.8091 251.19 78.4047 251.269 78.0099C251.409 76.924 251.671 75.8573 252.049 74.8299C252.619 73.2938 253.448 71.8666 254.499 70.6099C255.805 69.0705 257.466 67.8726 259.339 67.1199C261.221 66.3588 263.279 66.1405 265.279 66.4899C266.9 66.8013 268.418 67.509 269.699 68.5499C270.558 69.2452 271.277 70.0969 271.819 71.0599C271.962 71.3218 272.089 71.5923 272.199 71.8699C272.244 71.9643 272.271 72.0659 272.279 72.1699Z" fill="#455A64" />
            <path id="Vector_19" d="M269.32 63.25C268.256 62.7451 267.144 62.3497 266 62.07C263.26 61.5543 260.426 62.0255 258 63.4C255.594 64.8557 253.655 66.9687 252.41 69.49C251.41 71.41 251.14 72.74 251.05 72.71C251.046 72.3904 251.097 72.0725 251.2 71.77C251.421 70.9291 251.715 70.1093 252.08 69.32C253.273 66.6883 255.24 64.4833 257.72 63C260.263 61.5419 263.264 61.0989 266.12 61.76C266.975 61.9727 267.793 62.3096 268.55 62.76C268.829 62.886 269.088 63.051 269.32 63.25V63.25Z" fill="#455A64" />
            <path id="Vector_20" d="M197.26 340.23L309 341.75C309 341.75 340.25 328.67 348.84 328.32C357.43 327.97 374.47 329.06 382.35 341.75C390.5 354.87 391.64 378.01 366.53 394.82C342.07 411.2 230.24 426.33 214.91 424.94L186.67 387C186.67 387 186.38 355.91 186.67 354.43C186.96 352.95 191.67 339.63 191.67 339.63L197.26 340.23Z" fill="#263238" />
            <path id="Vector_21" d="M264.16 392.71L322.07 414.22L295.68 486.39C288.94 483.45 288.75 441.05 288.75 441.05L251.08 428.79L264.16 392.71Z" fill="#0A7044" />
            <g id="Group" opacity="0.6">
                <path id="Vector_22" d="M293.78 417.59C294.245 416.973 294.922 416.549 295.68 416.399C296.438 416.25 297.225 416.385 297.89 416.78C298.525 417.218 298.968 417.885 299.124 418.641C299.28 419.398 299.139 420.185 298.73 420.84C297.86 422.12 295.56 422.66 294.37 421.68C293.18 420.7 292.82 418.38 293.97 417.35" fill="white" />
            </g>
            <path id="Vector_23" d="M322.07 414.22L316.22 412L293.06 482.2C293.06 482.2 293.28 485.93 295.68 486.39L322.07 414.22Z" fill="#263238" />
            <path id="Vector_24" d="M288 442.08C288.36 442.2 289.16 440.5 290.93 439.18C292.7 437.86 294.52 437.48 294.5 437.1C294.48 436.72 292.25 436.51 290.14 438.1C288.03 439.69 287.6 442 288 442.08Z" fill="#263238" />
            <path id="Vector_25" d="M288.319 450.8C288.629 451 289.779 449.7 291.709 449.05C293.639 448.4 295.339 448.62 295.459 448.27C295.579 447.92 293.659 446.96 291.279 447.81C288.899 448.66 287.999 450.67 288.319 450.8Z" fill="#263238" />
            <path id="Vector_26" d="M295.8 458.41C296 458.12 294.41 456.98 292.15 457.18C289.89 457.38 288.52 458.75 288.76 459.01C289 459.27 290.4 458.62 292.26 458.48C294.12 458.34 295.64 458.75 295.8 458.41Z" fill="#263238" />
            <path id="Vector_27" d="M279.679 438.34C280.049 438.34 280.159 436.51 281.019 434.57C281.879 432.63 283.079 431.3 282.849 431.01C282.619 430.72 280.849 431.75 279.849 434.01C278.849 436.27 279.339 438.41 279.679 438.34Z" fill="#263238" />
            <path id="Vector_28" d="M271.74 433.49C271.89 433.54 272.61 432.23 273.05 429.87C273.289 428.48 273.363 427.067 273.27 425.66C273.207 424.827 273.093 423.999 272.93 423.18C272.846 422.693 272.691 422.221 272.47 421.78C272.307 421.456 272.04 421.196 271.711 421.042C271.383 420.888 271.013 420.849 270.66 420.93C270.349 421.016 270.063 421.174 269.825 421.391C269.587 421.608 269.404 421.879 269.29 422.18C269.122 422.637 269.017 423.115 268.98 423.6C268.884 424.44 268.867 425.287 268.93 426.13C269.039 427.555 269.377 428.952 269.93 430.27C270.87 432.51 271.93 433.56 272.09 433.47C272.25 433.38 271.45 432.13 270.8 429.96C270.418 428.697 270.203 427.389 270.16 426.07C270.136 425.298 270.176 424.525 270.28 423.76C270.36 422.92 270.59 422.27 271 422.2C271.16 422.2 271.21 422.2 271.38 422.43C271.53 422.748 271.641 423.084 271.71 423.43C271.884 424.188 272.014 424.956 272.1 425.73C272.243 427.059 272.263 428.398 272.16 429.73C272 432 271.55 433.42 271.74 433.49Z" fill="#263238" />
            <path id="Vector_29" d="M272.42 433.21C272.52 433.11 271.51 431.95 269.27 430.98C267.96 430.412 266.563 430.074 265.14 429.98C264.291 429.937 263.44 429.977 262.6 430.1C262.052 430.12 261.52 430.282 261.053 430.57C260.587 430.857 260.203 431.26 259.94 431.74C259.828 432.062 259.81 432.41 259.89 432.741C259.97 433.073 260.143 433.374 260.39 433.61C260.743 433.952 261.144 434.242 261.58 434.47C262.342 434.89 263.165 435.19 264.02 435.36C265.442 435.662 266.917 435.6 268.31 435.18C270.7 434.46 271.66 433.18 271.55 433.07C271.44 432.96 270.29 433.86 268.1 434.29C266.834 434.531 265.531 434.496 264.28 434.19C263.559 434.006 262.866 433.727 262.22 433.36C261.49 432.96 260.98 432.45 261.16 432.19C261.34 431.93 262.09 431.43 262.81 431.36C263.563 431.233 264.326 431.172 265.09 431.18C266.402 431.208 267.704 431.417 268.96 431.8C271.11 432.53 272.29 433.39 272.42 433.21Z" fill="#263238" />
            <path id="Vector_30" d="M216.399 383.79L160.399 409.79L192.399 479.67C198.879 476.21 195.739 433.92 195.739 433.92L232.329 418.74L216.399 383.79Z" fill="#0A7044" />
            <g id="Group_2" opacity="0.6">
                <path id="Vector_31" d="M188.83 410.92C188.318 410.341 187.611 409.97 186.844 409.88C186.076 409.79 185.302 409.985 184.67 410.43C184.07 410.919 183.682 411.62 183.587 412.388C183.492 413.155 183.697 413.93 184.16 414.55C185.16 415.75 187.45 416.11 188.56 415.04C189.67 413.97 189.85 411.63 188.62 410.7" fill="white" />
            </g>
            <path id="Vector_32" d="M160.369 409.78L166.019 407.16L194.629 475.28C194.629 475.28 194.699 479.01 192.349 479.66L160.369 409.78Z" fill="#263238" />
            <path id="Vector_33" d="M196.569 434.88C196.219 435.03 195.279 433.39 193.419 432.21C191.559 431.03 189.709 430.8 189.699 430.42C189.689 430.04 191.899 429.65 194.129 431.12C196.359 432.59 196.909 434.81 196.569 434.88Z" fill="#263238" />
            <path id="Vector_34" d="M196.89 443.6C196.59 443.83 195.34 442.6 193.36 442.12C191.38 441.64 189.71 441.98 189.57 441.64C189.43 441.3 191.26 440.19 193.7 440.85C196.14 441.51 197.21 443.44 196.89 443.6Z" fill="#263238" />
            <path id="Vector_35" d="M189.999 451.78C189.789 451.5 191.269 450.24 193.539 450.26C195.809 450.28 197.289 451.54 197.069 451.82C196.849 452.1 195.399 451.56 193.539 451.57C191.679 451.58 190.209 452.1 189.999 451.78Z" fill="#263238" />
            <path id="Vector_36" d="M204.519 430.5C204.139 430.5 203.899 428.71 202.879 426.85C201.859 424.99 200.569 423.75 200.789 423.44C201.009 423.13 202.869 424.02 204.039 426.24C205.209 428.46 204.859 430.54 204.519 430.5Z" fill="#263238" />
            <path id="Vector_37" d="M212.049 425C211.909 425.07 211.049 423.81 210.469 421.49C210.111 420.125 209.923 418.721 209.909 417.31C209.907 416.478 209.957 415.646 210.059 414.82C210.095 414.325 210.21 413.839 210.399 413.38C210.535 413.042 210.78 412.76 211.096 412.578C211.411 412.397 211.779 412.327 212.139 412.38C212.457 412.436 212.757 412.568 213.013 412.764C213.269 412.961 213.474 413.217 213.609 413.51C213.813 413.985 213.944 414.487 213.999 415C214.159 415.831 214.243 416.674 214.249 417.52C214.254 418.941 214.038 420.355 213.609 421.71C212.849 424.02 211.829 425.16 211.709 425.07C211.589 424.98 212.229 423.69 212.709 421.47C212.989 420.183 213.1 418.866 213.039 417.55C213.005 416.776 212.905 416.007 212.739 415.25C212.599 414.43 212.319 413.79 211.899 413.75C211.739 413.75 211.689 413.75 211.539 414.01C211.418 414.332 211.337 414.668 211.299 415.01C211.182 415.782 211.112 416.56 211.089 417.34C211.044 418.678 211.128 420.018 211.339 421.34C211.729 423.6 212.239 425 212.049 425Z" fill="#263238" />
            <path id="Vector_38" d="M211.359 424.82C211.249 424.72 212.159 423.48 214.309 422.35C216.34 421.302 218.62 420.835 220.899 421C221.447 420.976 221.992 421.094 222.481 421.343C222.97 421.592 223.386 421.963 223.689 422.42C223.824 422.735 223.866 423.082 223.811 423.42C223.756 423.758 223.607 424.074 223.379 424.33C223.052 424.698 222.675 425.017 222.259 425.28C221.532 425.757 220.736 426.121 219.899 426.36C218.505 426.767 217.031 426.822 215.609 426.52C213.169 425.98 212.109 424.75 212.209 424.66C212.309 424.57 213.529 425.36 215.749 425.66C217.03 425.803 218.327 425.666 219.549 425.26C220.26 425.024 220.934 424.687 221.549 424.26C222.239 423.81 222.719 423.26 222.549 423.02C222.335 422.786 222.071 422.602 221.777 422.481C221.484 422.36 221.167 422.305 220.849 422.32C220.085 422.245 219.314 422.245 218.549 422.32C217.245 422.444 215.966 422.754 214.749 423.24C212.599 424 211.489 425 211.359 424.82Z" fill="#263238" />
            <path id="Vector_39" d="M191.7 339.64C191.7 339.64 143.44 321.64 125.7 323.94C115.77 325.25 100.24 332.83 99.0496 345.56C97.8596 358.29 100.98 375.32 118.15 383.61C135.32 391.9 203.86 422.66 220.15 427.39C236.44 432.12 277 443.22 277 443.22L292.42 399.22C292.42 399.22 208.27 370.08 203.83 366.82C199.39 363.56 188.14 359.13 188.14 359.13L191.7 339.64Z" fill="#263238" />
            <path id="Vector_40" d="M359.469 345.61L359.13 345.53L358.13 345.23C357.28 344.98 356.02 344.61 354.38 344.23C349.754 343.056 344.958 342.7 340.209 343.18C336.935 343.46 333.698 344.077 330.549 345.02C328.802 345.549 327.1 346.218 325.459 347.02L320.209 349.59C312.989 353.04 304.919 356.59 296.339 359.96C279.139 366.85 262.629 370.12 250.859 372.8C244.959 374.1 240.179 375.18 236.859 375.96L233.07 376.86L232.07 377.08L231.729 377.14C231.829 377.085 231.937 377.048 232.049 377.03L233.049 376.76C233.909 376.53 235.17 376.17 236.82 375.76C240.09 374.92 244.819 373.76 250.749 372.44C262.509 369.67 278.969 366.35 296.109 359.44C304.689 356.05 312.749 352.54 319.969 349.11L325.23 346.57C326.896 345.765 328.625 345.096 330.399 344.57C333.576 343.628 336.845 343.028 340.149 342.78C344.954 342.32 349.802 342.733 354.459 344C356.099 344.42 357.35 344.82 358.2 345.11L359.149 345.46L359.469 345.61Z" fill="#455A64" />
            <path id="Vector_41" d="M356.93 339.25C356.93 339.34 355.46 339.07 353.1 338.82C346.939 338.141 340.709 338.462 334.65 339.77C332.32 340.26 330.9 340.67 330.88 340.59C331.195 340.418 331.531 340.287 331.88 340.2C332.51 339.98 333.44 339.7 334.6 339.41C337.631 338.65 340.729 338.188 343.85 338.03C346.966 337.873 350.09 338.014 353.18 338.45C354.37 338.63 355.32 338.81 355.97 338.96C356.299 339.022 356.621 339.12 356.93 339.25V339.25Z" fill="#455A64" />
            <path id="Vector_42" d="M171.399 352.4C171.349 352.47 170.009 351.4 167.699 350.01C161.665 346.257 154.884 343.868 147.829 343.01C145.129 342.67 143.439 342.64 143.439 342.55C143.832 342.479 144.231 342.456 144.629 342.48C145.399 342.48 146.509 342.48 147.869 342.64C155.015 343.319 161.884 345.747 167.869 349.71C168.776 350.299 169.651 350.937 170.489 351.62C170.826 351.838 171.132 352.101 171.399 352.4V352.4Z" fill="#455A64" />
            <path id="Vector_43" d="M195.62 418L196 418.14L197.09 418.6C198.09 419 199.47 419.66 201.36 420.39C205.12 421.88 210.67 423.92 217.8 426.27C232.05 430.92 252.54 436.86 277.06 443.03L276.79 443.18L291.71 401.77L291.85 402.1L273.37 394.51L171.14 352.4C166.98 348 163.14 344.12 159.56 340.98C156.517 338.296 153.271 335.852 149.85 333.67C147.698 332.316 145.474 331.077 143.19 329.96L141.4 329.12L140.8 328.82L141.42 329.08L143.23 329.87C145.539 330.951 147.783 332.166 149.95 333.51C153.401 335.669 156.675 338.1 159.74 340.78C163.36 343.9 167.21 347.78 171.39 352.16H171.33L273.57 394L292.05 401.59L292.27 401.68L292.19 401.92L277.19 443.31L277.12 443.51L276.91 443.46C252.39 437.24 231.91 431.24 217.67 426.46C210.55 424.08 205.01 421.99 201.26 420.46C199.38 419.72 197.98 419.03 197.02 418.61L195.94 418.12L195.62 418Z" fill="#455A64" />
            <path id="Vector_44" d="M314.899 185.83C314.899 185.83 328.799 193.83 331.619 203.24C333.329 208.95 346.289 282.01 348.339 296.41C350.389 310.81 346.059 321.49 339.919 326.27C333.779 331.05 315.149 337.41 315.149 337.41L288.999 345.9L281.489 326.78L306.389 291L303.999 266.83L314.899 185.83Z" fill="#0A7044" />
            <path id="Vector_45" d="M287.59 173.21L277.15 167.21C277.15 167.21 267.64 178.33 254.67 176.97C241.7 175.61 234 165.72 234 165.72L195.32 173.59C192.73 174.11 188 175.75 183.47 182.22C178.42 189.43 154.47 221.42 154.47 221.42H137.75C135.485 221.42 133.264 222.038 131.325 223.208C129.387 224.379 127.804 226.056 126.75 228.06C123.89 233.51 120.46 240.79 120.75 243.81C121.32 248.92 120.33 262.93 127.18 267.3C129.35 268.69 137.11 272.85 143.18 272.57C152.07 272.15 162.4 267.52 168.35 263.36C173.35 259.83 185.1 247.65 189.61 242.9V243L192.51 344.45L293.91 341.57L314.91 185.85C314.91 185.85 288.61 173.21 287.59 173.21Z" fill="#0A7044" />
            <path id="Vector_46" d="M189.239 200.4C189.379 200.4 189.649 212.97 189.829 228.48C190.009 243.99 190.049 256.57 189.899 256.57C189.749 256.57 189.489 244 189.309 228.49C189.129 212.98 189.099 200.4 189.239 200.4Z" fill="#263238" />
            <path id="Vector_47" d="M327.18 282.41C327.18 282.41 326.32 282.55 324.79 282.84C322.629 283.271 320.522 283.941 318.51 284.84C315.532 286.184 312.725 287.879 310.15 289.89C306.994 292.36 304.047 295.086 301.34 298.04C298.44 301.17 295.8 304.26 293.34 307.04C291.156 309.488 288.849 311.824 286.43 314.04C284.793 315.539 283.059 316.929 281.24 318.2C280.6 318.65 280.07 318.95 279.72 319.2C279.55 319.322 279.365 319.423 279.17 319.5C279.32 319.354 279.484 319.223 279.66 319.11C279.99 318.86 280.5 318.53 281.12 318.05C282.889 316.731 284.578 315.308 286.18 313.79C288.23 311.89 290.52 309.47 292.98 306.7C295.44 303.93 298.08 300.83 300.98 297.7C303.71 294.73 306.687 291.997 309.88 289.53C312.495 287.517 315.35 285.838 318.38 284.53C320.427 283.653 322.572 283.028 324.77 282.67C325.55 282.52 326.16 282.52 326.57 282.47C326.77 282.425 326.975 282.405 327.18 282.41V282.41Z" fill="#263238" />
            <path id="Vector_48" d="M329.48 275.54C329.48 275.63 327.94 275.85 325.48 276.54C319.158 278.29 313.421 281.706 308.87 286.43C307.13 288.24 306.2 289.5 306.13 289.43C306.285 289.098 306.479 288.785 306.71 288.5C307.288 287.683 307.919 286.904 308.6 286.17C313.066 281.232 318.912 277.749 325.38 276.17C326.352 275.931 327.337 275.748 328.33 275.62C328.708 275.54 329.095 275.513 329.48 275.54V275.54Z" fill="#263238" />
            <g id="Group_3" opacity="0.3">
                <path id="Vector_49" d="M140.75 257.73C146.12 259.19 152.56 251.47 157.44 246.64C159.97 244.12 162.61 241.44 163.55 237.99C164.21 235.091 163.912 232.055 162.7 229.34C161.801 226.891 160.602 224.564 159.13 222.41C159.58 226.58 160.61 232.96 159.21 238.2C158.04 242.57 155.27 246.04 152.33 249.34C149.23 252.83 145.55 256.49 140.75 257.73" fill="black" />
            </g>
            <path id="Vector_50" d="M163.7 253.31C163.6 253.31 164.22 251.54 164.7 248.63C164.991 246.928 165.155 245.206 165.19 243.48C165.226 241.369 165.085 239.258 164.77 237.17C164.425 235.085 163.91 233.031 163.23 231.03C162.66 229.398 161.972 227.811 161.17 226.28C159.8 223.66 158.67 222.2 158.75 222.14C159.065 222.439 159.344 222.775 159.58 223.14C159.896 223.535 160.186 223.949 160.45 224.38C160.77 224.88 161.15 225.44 161.5 226.1C162.353 227.626 163.082 229.217 163.68 230.86C164.399 232.881 164.935 234.963 165.28 237.08C165.606 239.2 165.736 241.346 165.67 243.49C165.616 245.241 165.412 246.984 165.06 248.7C164.94 249.44 164.75 250.08 164.6 250.7C164.479 251.191 164.332 251.675 164.16 252.15C164.044 252.55 163.89 252.939 163.7 253.31V253.31Z" fill="#263238" />
            <path id="Vector_51" d="M238.24 169.64C238.31 169.77 237.12 170.46 235.88 171.58C234.64 172.7 233.8 173.79 233.68 173.7C234.115 172.743 234.746 171.888 235.531 171.188C236.316 170.489 237.239 169.962 238.24 169.64V169.64Z" fill="#263238" />
            <path id="Vector_52" d="M248.789 175.77C248.899 175.88 247.879 176.97 247.059 178.59C246.239 180.21 245.929 181.67 245.779 181.59C245.708 180.435 245.994 179.286 246.599 178.3C247.059 177.256 247.822 176.374 248.789 175.77V175.77Z" fill="#263238" />
            <path id="Vector_53" d="M266.859 182.13C266.376 181.17 265.987 180.165 265.699 179.13C265.258 178.145 264.923 177.116 264.699 176.06C265.406 176.908 265.925 177.896 266.219 178.96C266.661 179.957 266.88 181.039 266.859 182.13V182.13Z" fill="#263238" />
            <path id="Vector_54" d="M278.49 176.63C278.33 176.63 277.94 174.9 276.79 173.03C275.64 171.16 274.28 169.98 274.39 169.86C275.606 170.523 276.598 171.533 277.24 172.76C278.031 173.898 278.466 175.245 278.49 176.63V176.63Z" fill="#263238" />
            <path id="Vector_55" d="M311.87 209.49C312.02 209.49 310.3 223.37 308.04 240.44C305.78 257.51 303.83 271.34 303.69 271.32C303.55 271.3 305.26 257.45 307.52 240.37C309.78 223.29 311.73 209.47 311.87 209.49Z" fill="#263238" />
            <path id="Vector_56" d="M159.92 231.93C159.959 232.406 159.959 232.884 159.92 233.36C159.893 233.921 159.822 234.479 159.71 235.03C159.65 235.36 159.6 235.7 159.53 236.03C159.46 236.36 159.35 236.77 159.24 237.17C158.747 239.046 158.077 240.87 157.24 242.62C156.189 244.749 154.94 246.775 153.51 248.67C152.038 250.551 150.361 252.261 148.51 253.77C146.986 254.991 145.304 256 143.51 256.77C143.12 256.92 142.76 257.09 142.41 257.22L141.41 257.5L140.53 257.74C140.26 257.8 140 257.81 139.77 257.85C139.297 257.925 138.819 257.962 138.34 257.96C140.054 257.621 141.729 257.108 143.34 256.43C145.066 255.636 146.685 254.628 148.16 253.43C149.943 251.936 151.565 250.261 153 248.43C154.41 246.566 155.648 244.577 156.7 242.49C157.545 240.773 158.241 238.986 158.78 237.15C159.25 235.431 159.63 233.688 159.92 231.93V231.93Z" fill="#263238" />
            <g id="Group_4" opacity="0.3">
                <path id="Vector_57" d="M308.61 347.9C312.91 345.82 313.89 340.25 314.33 335.49C315.61 321.563 316.893 307.627 318.18 293.68C318.79 287.13 319.08 279.68 314.46 274.96C310.24 270.68 303.53 270.43 297.52 270.45C260.42 270.55 227.65 271.64 190.52 271.74L192.41 336.65L308.61 347.9Z" fill="black" />
            </g>
            <path id="Vector_58" d="M174.55 281.8L178.5 357.08C178.582 358.486 179.2 359.807 180.227 360.771C181.254 361.734 182.611 362.268 184.02 362.26L303.94 362.47C305.351 362.475 306.71 361.938 307.737 360.971C308.764 360.003 309.38 358.679 309.46 357.27L314.03 283.27C314.19 280.19 312.03 276.1 308.89 276.04H180.18C179.424 276.02 178.672 276.156 177.971 276.44C177.27 276.724 176.635 277.15 176.107 277.691C175.578 278.231 175.167 278.876 174.899 279.583C174.631 280.29 174.512 281.045 174.55 281.8Z" fill="#E0E0E0" />
            <path id="Vector_59" d="M174.55 281.8C174.55 281.8 174.55 281.7 174.55 281.52C174.524 281.241 174.524 280.959 174.55 280.68C174.713 279.581 175.209 278.559 175.97 277.75C176.528 277.152 177.211 276.685 177.97 276.38C178.898 276.046 179.886 275.91 180.87 275.98H188.16L234.62 275.9L303.53 275.83H308.43C309.298 275.784 310.16 276.003 310.9 276.46C311.63 276.925 312.253 277.538 312.73 278.26C313.711 279.691 314.237 281.385 314.24 283.12C314.14 284.79 314.04 286.48 313.94 288.18C313.52 294.953 313.093 301.863 312.66 308.91C311.8 323 310.9 337.58 309.97 352.52L309.8 355.32C309.72 356.25 309.74 357.15 309.57 358.13C309.377 359.088 308.944 359.98 308.31 360.724C307.677 361.467 306.865 362.037 305.95 362.38C305.05 362.699 304.092 362.825 303.14 362.75H294.89H273.36L232.66 362.66L195.83 362.57H187.33H185.3C184.61 362.57 183.93 362.57 183.21 362.5C181.807 362.302 180.527 361.589 179.62 360.5C178.735 359.437 178.26 358.093 178.28 356.71C178.21 355.4 178.15 354.11 178.08 352.83C177.95 350.26 177.82 347.76 177.69 345.31C176.69 325.72 175.9 309.87 175.34 298.91C175.08 293.44 174.87 289.19 174.73 286.29C174.67 284.85 174.62 283.76 174.58 283.01C174.54 282.26 174.58 281.89 174.58 281.89C174.58 281.89 174.58 282.27 174.67 283.01C174.76 283.75 174.78 284.85 174.86 286.28C175.03 289.18 175.27 293.43 175.58 298.9C176.17 309.9 177.03 325.71 178.09 345.29C178.22 347.74 178.36 350.24 178.5 352.81C178.56 354.09 178.63 355.38 178.7 356.69C178.68 357.986 179.128 359.246 179.96 360.24C180.805 361.248 181.996 361.904 183.3 362.08C183.965 362.14 184.633 362.16 185.3 362.14H195.87H232.7L273.4 362.2H294.93H303.18C304.071 362.271 304.967 362.155 305.81 361.86C306.641 361.549 307.38 361.032 307.955 360.356C308.531 359.681 308.925 358.87 309.1 358C309.25 357.15 309.25 356.17 309.32 355.26L309.49 352.46C310.42 337.52 311.32 322.94 312.2 308.86C312.633 301.807 313.06 294.893 313.48 288.12C313.59 286.43 313.69 284.75 313.79 283.07C313.783 281.442 313.289 279.854 312.37 278.51C311.975 277.826 311.404 277.259 310.717 276.869C310.029 276.478 309.25 276.279 308.46 276.29H303.57H234.66L188.2 276.22H180.91C179.945 276.145 178.974 276.271 178.06 276.59C177.175 276.931 176.394 277.497 175.795 278.232C175.195 278.967 174.797 279.845 174.64 280.78C174.593 281.118 174.563 281.459 174.55 281.8Z" fill="#263238" />
            <path id="Vector_60" d="M245.179 325.58C249.078 325.58 252.239 322.419 252.239 318.52C252.239 314.621 249.078 311.46 245.179 311.46C241.28 311.46 238.119 314.621 238.119 318.52C238.119 322.419 241.28 325.58 245.179 325.58Z" fill="white" />
            <path id="Vector_61" d="M252.24 318.52C252.19 318.52 252.24 317.89 251.92 316.82C251.506 315.31 250.597 313.983 249.34 313.05C248.487 312.406 247.493 311.974 246.44 311.79C245.239 311.58 244.005 311.691 242.86 312.11C241.592 312.568 240.491 313.398 239.7 314.49C238.894 315.593 238.437 316.912 238.388 318.278C238.339 319.643 238.701 320.992 239.427 322.149C240.153 323.307 241.209 324.22 242.459 324.771C243.709 325.322 245.096 325.485 246.44 325.24C247.493 325.056 248.487 324.624 249.34 323.98C250.596 323.05 251.504 321.726 251.92 320.22C252.21 319.15 252.19 318.51 252.24 318.52C252.266 318.669 252.266 318.821 252.24 318.97C252.246 319.408 252.195 319.845 252.09 320.27C251.726 321.857 250.825 323.27 249.54 324.27C248.579 325.019 247.444 325.513 246.241 325.705C245.039 325.897 243.806 325.782 242.66 325.37C241.589 324.988 240.623 324.36 239.839 323.537C239.055 322.714 238.474 321.719 238.144 320.631C237.813 319.543 237.742 318.393 237.936 317.273C238.13 316.153 238.583 315.093 239.26 314.18C240.112 313.013 241.297 312.131 242.66 311.65C243.887 311.211 245.21 311.111 246.49 311.36C247.586 311.58 248.614 312.057 249.49 312.75C250.78 313.746 251.681 315.161 252.04 316.75C252.146 317.172 252.196 317.605 252.19 318.04C252.235 318.196 252.252 318.358 252.24 318.52V318.52Z" fill="#263238" />
            <path id="Vector_62" d="M178.59 290.13C178.73 290.13 179.33 302.78 179.91 318.39C180.49 334 180.85 346.66 180.71 346.66C180.57 346.66 180 334 179.39 318.4C178.78 302.8 178.45 290.14 178.59 290.13Z" fill="#263238" />
            <path id="Vector_63" d="M142.55 191.91C141.84 191.31 144.92 179.49 144.92 179.49C144.92 179.49 136.78 166.22 136.57 161.94C136.36 157.66 139.78 148.88 139.78 148.88L163.11 142.88C163.11 142.88 170.61 156.8 172.11 161.72C173.61 166.64 169.54 183.34 169.54 183.34L165.54 191.91C165.54 191.91 153.66 201.33 142.55 191.91Z" fill="#936760" />
            <path id="Vector_64" d="M136.61 164.5C135.697 162.816 134.875 161.083 134.15 159.31C132.68 155.81 130.86 152.37 134.15 150.41C134.663 150.072 135.243 149.848 135.85 149.753C136.457 149.658 137.078 149.695 137.67 149.86C137.67 149.86 137.17 146.86 138.93 145.8C139.442 145.48 140.022 145.286 140.624 145.234C141.225 145.182 141.83 145.273 142.39 145.5C142.39 145.5 141.83 141.34 144.39 139.58C145.342 138.951 146.452 138.6 147.593 138.566C148.734 138.533 149.862 138.818 150.85 139.39C150.85 139.39 148.85 121.18 148.67 120.22C148.03 116.68 149.34 113.54 152.86 114.42C154.15 114.74 154.86 116.1 156.38 122.03C157.9 127.96 160.33 138.08 160.33 138.08C160.33 138.08 164.43 145.2 166.33 149.08C168.23 152.96 172.1 161.74 172.42 164.08C173.24 170.08 169.71 178.08 169.71 178.08L144.91 179.52L136.61 164.5Z" fill="#936760" />
            <path id="Vector_65" d="M138.16 150.64C138.867 151.483 139.509 152.379 140.08 153.32L142.08 156.32C142.485 156.911 142.843 157.533 143.15 158.18C143.499 158.918 143.6 159.749 143.44 160.55C143.364 160.968 143.179 161.359 142.903 161.682C142.628 162.005 142.271 162.25 141.87 162.39C141.121 162.577 140.329 162.477 139.65 162.11C139.066 161.83 138.51 161.495 137.99 161.11C137.51 160.76 137.06 160.42 136.66 160.11C135.85 159.48 135.23 158.94 134.81 158.55C134.39 158.16 134.17 157.94 134.19 157.91C134.21 157.88 135.19 158.64 136.88 159.81C137.824 160.521 138.828 161.15 139.88 161.69C140.454 161.992 141.119 162.074 141.75 161.92C142.065 161.806 142.343 161.609 142.556 161.35C142.769 161.092 142.908 160.781 142.96 160.45C143.087 159.773 143 159.074 142.71 158.45C142.422 157.826 142.088 157.224 141.71 156.65L139.84 153.65C139.196 152.695 138.634 151.688 138.16 150.64V150.64Z" fill="#6F4C47" />
            <path id="Vector_66" d="M158.5 152.81C158.287 151.507 158.376 150.173 158.76 148.91C158.985 147.607 159.516 146.377 160.31 145.32C160.45 145.39 159.76 146.98 159.31 149.03C158.86 151.08 158.66 152.81 158.5 152.81Z" fill="#6F4C47" />
            <path id="Vector_67" d="M168.34 158.13C166.05 155.914 163.167 154.41 160.04 153.8C156.926 153.2 153.74 153.079 150.59 153.44C148.07 153.67 145.18 154.32 144.04 156.58C142.9 158.84 144.28 161.9 146.51 163.23C148.74 164.56 151.51 164.62 154.12 164.39C156.73 164.16 159.33 163.67 161.91 164.07" fill="#936760" />
            <path id="Vector_68" d="M161.909 164.07C161.909 164.07 161.209 164 159.909 164.07C158.132 164.147 156.36 164.314 154.599 164.57C153.363 164.728 152.115 164.781 150.869 164.73C149.417 164.68 147.992 164.322 146.689 163.68C145.235 162.914 144.126 161.623 143.589 160.07C143.304 159.241 143.242 158.351 143.409 157.49C143.623 156.602 144.1 155.8 144.779 155.19C146.157 154.125 147.814 153.482 149.549 153.34C151.113 153.156 152.685 153.063 154.259 153.06C156.937 153.011 159.605 153.413 162.149 154.25C163.861 154.825 165.461 155.691 166.879 156.81C167.266 157.116 167.631 157.45 167.969 157.81C168.096 157.925 168.207 158.056 168.299 158.2C168.299 158.2 167.779 157.73 166.759 156.99C165.318 155.954 163.722 155.154 162.029 154.62C159.517 153.846 156.896 153.488 154.269 153.56C152.715 153.577 151.162 153.681 149.619 153.87C147.987 154 146.427 154.601 145.129 155.6C144.532 156.128 144.11 156.826 143.919 157.6C143.763 158.37 143.815 159.167 144.069 159.91C144.561 161.347 145.579 162.544 146.919 163.26C148.166 163.875 149.53 164.216 150.919 164.26C152.14 164.327 153.364 164.297 154.579 164.17C156.356 163.938 158.147 163.821 159.939 163.82C160.425 163.842 160.909 163.888 161.389 163.96C161.567 163.97 161.742 164.008 161.909 164.07V164.07Z" fill="#6F4C47" />
            <path id="Vector_69" d="M138.34 150.93C140.95 154.93 143.25 159.25 145.45 163.45C145.975 164.736 146.839 165.856 147.95 166.69C148.89 167.27 151.22 166.22 152.27 165.86L145.1 149.56" fill="#936760" />
            <path id="Vector_70" d="M145.1 149.56C145.351 149.942 145.565 150.348 145.74 150.77L147.32 154.19C148.65 157.09 150.47 161.19 152.5 165.76L152.62 166.01L152.35 166.11C151.58 166.38 150.75 166.73 149.85 166.96C149.489 167.05 149.121 167.103 148.75 167.12C148.555 167.129 148.359 167.109 148.17 167.06C147.972 167.011 147.788 166.919 147.63 166.79C147.053 166.374 146.56 165.851 146.18 165.25C145.45 164.09 144.93 162.93 144.34 161.86C143.22 159.69 142.19 157.75 141.29 156.13C140.39 154.51 139.65 153.22 139.12 152.33C138.828 151.882 138.567 151.414 138.34 150.93C138.699 151.33 139.018 151.766 139.29 152.23C139.87 153.08 140.68 154.35 141.61 155.95C142.54 157.55 143.61 159.47 144.77 161.63C145.36 162.7 145.91 163.88 146.61 164.97C146.958 165.513 147.402 165.987 147.92 166.37C148.196 166.513 148.5 166.595 148.811 166.609C149.122 166.623 149.432 166.568 149.72 166.45C150.57 166.24 151.38 165.9 152.18 165.62L152 166C150 161.39 148.22 157.3 147 154.36L145.56 150.88C145.368 150.454 145.214 150.013 145.1 149.56Z" fill="#6F4C47" />
            <path id="Vector_71" d="M143.17 144.71C145.47 150.49 147.773 156.267 150.08 162.04C150.5 163.296 151.129 164.473 151.94 165.52C152.35 166.04 152.882 166.45 153.49 166.714C154.097 166.977 154.76 167.086 155.42 167.03C157.22 166.77 158.42 164.86 158.49 163.03C158.435 161.204 157.992 159.411 157.19 157.77C155.123 152.499 153.468 147.076 152.24 141.55" fill="#936760" />
            <path id="Vector_72" d="M152.24 141.56C152.31 141.732 152.367 141.909 152.41 142.09C152.52 142.49 152.65 143 152.82 143.62C153.18 144.95 153.7 146.87 154.43 149.22C155.16 151.57 156.1 154.34 157.29 157.36C158.027 158.942 158.516 160.629 158.74 162.36C158.806 163.31 158.624 164.262 158.21 165.12C157.787 166.017 157.051 166.729 156.14 167.12C155.666 167.293 155.161 167.361 154.659 167.32C154.156 167.279 153.669 167.128 153.23 166.88C152.409 166.423 151.72 165.761 151.23 164.96C150.403 163.451 149.704 161.875 149.14 160.25C147.96 157.25 146.9 154.51 145.99 152.2C145.08 149.89 144.43 148.1 143.91 146.75L143.36 145.26C143.289 145.087 143.238 144.905 143.21 144.72C143.311 144.877 143.395 145.045 143.46 145.22L144.1 146.67C144.65 148.01 145.41 149.84 146.33 152.06C147.25 154.28 148.33 157.06 149.59 160.06C150.153 161.647 150.845 163.186 151.66 164.66C152.113 165.392 152.751 165.992 153.51 166.4C153.884 166.61 154.299 166.738 154.727 166.774C155.155 166.811 155.586 166.755 155.99 166.61C156.788 166.262 157.429 165.632 157.79 164.84C158.166 164.063 158.332 163.201 158.27 162.34C158.048 160.677 157.58 159.055 156.88 157.53C155.71 154.53 154.8 151.68 154.12 149.32C153.44 146.96 152.96 145 152.66 143.66C152.52 142.98 152.41 142.46 152.35 142.1C152.285 141.927 152.248 141.745 152.24 141.56V141.56Z" fill="#6F4C47" />
            <path id="Vector_73" d="M143.719 185.34C143.719 185.34 127.899 232 127.269 234.28C126.639 236.56 130.399 253.23 137.269 257.18C144.139 261.13 157.469 244.69 159.129 238.65C160.789 232.61 159.129 222.41 159.129 222.41L169.799 182.22" fill="#936760" />
            <path id="Vector_74" d="M159.13 178.09C158.625 178.154 158.112 178.089 157.64 177.9C156.472 177.536 155.4 176.918 154.5 176.09C153.589 175.26 152.877 174.234 152.42 173.09C152.187 172.636 152.076 172.129 152.1 171.62C152.759 173.134 153.691 174.513 154.85 175.69C156.114 176.75 157.566 177.564 159.13 178.09V178.09Z" fill="#6F4C47" />
        </g>
        <g id="freepik--Floor--inject-6">
            <path id="Vector_75" d="M443.32 404.22C443.32 404.37 355.21 404.49 246.54 404.49C137.87 404.49 49.7402 404.37 49.7402 404.22C49.7402 404.07 137.84 403.96 246.54 403.96C355.24 403.96 443.32 404.08 443.32 404.22Z" fill="#263238" />
        </g>
        <g id="freepik--Button--inject-6">
            <path id="Vector_76" d="M185.44 69.74H73.2099C70.2883 69.74 67.9199 72.1084 67.9199 75.03V106.15C67.9199 109.072 70.2883 111.44 73.2099 111.44H185.44C188.362 111.44 190.73 109.072 190.73 106.15V75.03C190.73 72.1084 188.362 69.74 185.44 69.74Z" fill="#0A7044" />
            <path id="Vector_77" d="M191.52 111.43H83.59C82.1037 111.414 80.6834 110.813 79.6371 109.758C78.5907 108.702 78.0025 107.276 78 105.79V75.2301C78.0026 73.7351 78.5977 72.3021 79.6548 71.2449C80.712 70.1878 82.145 69.5927 83.64 69.5901H191.52C193.015 69.5927 194.448 70.1878 195.505 71.2449C196.562 72.3021 197.157 73.7351 197.16 75.2301V105.79C197.157 107.285 196.562 108.718 195.505 109.775C194.448 110.832 193.015 111.427 191.52 111.43V111.43ZM83.59 70.5901C82.3689 70.6058 81.203 71.1013 80.3442 71.9695C79.4853 72.8377 79.0025 74.0089 79 75.2301V105.79C79 107.021 79.4889 108.201 80.359 109.071C81.2292 109.941 82.4094 110.43 83.64 110.43H191.52C192.751 110.43 193.931 109.941 194.801 109.071C195.671 108.201 196.16 107.021 196.16 105.79V75.2301C196.157 74.0003 195.668 72.8216 194.798 71.952C193.928 71.0824 192.75 70.5927 191.52 70.5901H83.59Z" fill="#0A7044" />
            <path id="clickHere" d="M79.68 94.55C78.852 94.55 78.114 94.43 77.466 94.19C76.83 93.95 76.326 93.602 75.954 93.146C75.594 92.69 75.414 92.144 75.414 91.508C75.414 90.92 75.558 90.392 75.846 89.924C76.146 89.456 76.578 89.024 77.142 88.628C77.706 88.232 78.384 87.854 79.176 87.494C79.98 87.134 80.874 86.762 81.858 86.378L82.254 88.916C81.402 89.168 80.694 89.408 80.13 89.636C79.578 89.864 79.14 90.086 78.816 90.302C78.504 90.506 78.282 90.698 78.15 90.878C78.03 91.058 77.97 91.226 77.97 91.382C77.97 91.586 78.09 91.754 78.33 91.886C78.582 92.006 79.008 92.066 79.608 92.066C79.752 92.066 79.938 92.06 80.166 92.048C80.406 92.036 80.67 92.006 80.958 91.958C81.246 91.91 81.552 91.844 81.876 91.76L82.452 93.902C81.984 94.118 81.54 94.28 81.12 94.388C80.7 94.496 80.22 94.55 79.68 94.55ZM84.144 95C83.424 95 82.842 94.904 82.398 94.712C81.954 94.52 81.612 94.268 81.372 93.956C81.144 93.644 80.988 93.302 80.904 92.93C80.832 92.558 80.796 92.192 80.796 91.832V85.442H83.352V91.13C83.352 91.634 83.466 91.988 83.694 92.192C83.922 92.396 84.33 92.498 84.918 92.498H85.548V95H84.144ZM78.348 84.416L76.602 82.652L78.24 80.888L79.986 82.652L78.348 84.416ZM81.48 84.416L79.734 82.652L81.408 80.888L83.154 82.652L81.48 84.416ZM85.5469 95V92.498H87.6709C87.7069 92.51 87.7309 92.528 87.7429 92.552C87.7669 92.564 87.7849 92.576 87.7969 92.588C87.8089 92.6 87.8269 92.606 87.8509 92.606C87.5509 92.27 87.3349 91.916 87.2029 91.544C87.0829 91.16 87.0229 90.758 87.0229 90.338C87.0229 89.846 87.1129 89.378 87.2929 88.934C87.4849 88.478 87.7549 88.076 88.1029 87.728C88.4509 87.368 88.8769 87.086 89.3809 86.882C89.8969 86.678 90.4729 86.576 91.1089 86.576C91.7449 86.576 92.3149 86.678 92.8189 86.882C93.3229 87.086 93.7489 87.368 94.0969 87.728C94.4569 88.076 94.7269 88.478 94.9069 88.934C95.0989 89.378 95.1949 89.846 95.1949 90.338C95.1949 90.734 95.1349 91.124 95.0149 91.508C94.9069 91.88 94.6969 92.246 94.3849 92.606C94.3609 92.594 94.3669 92.582 94.4029 92.57C94.4389 92.546 94.4449 92.522 94.4209 92.498H96.3109V95H95.6629C94.8949 95 94.2469 94.988 93.7189 94.964C93.1909 94.94 92.7289 94.898 92.3329 94.838C91.9489 94.778 91.5709 94.682 91.1989 94.55C90.9949 94.61 90.7849 94.67 90.5689 94.73C90.3529 94.79 90.1129 94.838 89.8489 94.874C89.5849 94.91 89.2669 94.94 88.8949 94.964C88.5349 94.988 88.0849 95 87.5449 95H85.5469ZM91.1269 92.606C91.4269 92.462 91.6849 92.288 91.9009 92.084C92.1169 91.88 92.2789 91.646 92.3869 91.382C92.5069 91.118 92.5669 90.836 92.5669 90.536C92.5669 90.26 92.5069 90.014 92.3869 89.798C92.2669 89.582 92.0929 89.408 91.8649 89.276C91.6489 89.132 91.3969 89.06 91.1089 89.06C90.8089 89.06 90.5509 89.126 90.3349 89.258C90.1189 89.39 89.9449 89.57 89.8129 89.798C89.6929 90.014 89.6329 90.26 89.6329 90.536C89.6329 90.872 89.6989 91.172 89.8309 91.436C89.9629 91.688 90.1429 91.916 90.3709 92.12C90.5989 92.312 90.8509 92.474 91.1269 92.606ZM85.5469 92.498H85.7269V95H85.5469C85.1869 95 85.0069 94.58 85.0069 93.74C85.0069 92.912 85.1869 92.498 85.5469 92.498ZM91.1449 84.92L89.3989 83.156L91.0729 81.392L92.8189 83.156L91.1449 84.92ZM96.3047 95V92.498H98.6987C98.7707 92.306 98.8367 92.03 98.8967 91.67C98.9567 91.31 99.0047 90.938 99.0407 90.554C99.0887 90.158 99.1127 89.816 99.1127 89.528L102.101 88.484C101.897 89.348 101.693 90.146 101.489 90.878C101.285 91.61 101.039 92.312 100.751 92.984C100.475 93.644 100.121 94.316 99.6887 95H96.3047ZM103.361 95C102.593 95 101.933 94.928 101.381 94.784C100.841 94.628 100.379 94.448 99.9947 94.244C99.6227 94.028 99.2927 93.824 99.0047 93.632L100.355 92.03C100.547 92.138 100.763 92.228 101.003 92.3C101.243 92.36 101.507 92.408 101.795 92.444C102.095 92.48 102.401 92.498 102.713 92.498H103.415V95H103.361ZM96.3047 92.498H96.4847V95H96.3047C95.9447 95 95.7647 94.58 95.7647 93.74C95.7647 92.912 95.9447 92.498 96.3047 92.498ZM98.2667 99.68L96.5207 97.916L98.1587 96.152L99.9047 97.916L98.2667 99.68ZM101.399 99.68L99.6527 97.916L101.327 96.152L103.073 97.916L101.399 99.68ZM103.406 95V92.498H114.872C114.908 91.862 114.854 91.304 114.71 90.824C114.566 90.332 114.314 89.942 113.954 89.654C113.606 89.366 113.12 89.222 112.496 89.222C111.86 89.222 111.182 89.42 110.462 89.816C109.742 90.212 109.046 90.824 108.374 91.652C107.714 92.468 107.144 93.518 106.664 94.802L105.944 92.588C106.508 91.28 107.15 90.194 107.87 89.33C108.59 88.466 109.37 87.818 110.21 87.386C111.05 86.954 111.914 86.738 112.802 86.738C113.87 86.738 114.746 86.966 115.43 87.422C116.114 87.866 116.624 88.478 116.96 89.258C117.296 90.026 117.464 90.908 117.464 91.904C117.476 92.888 117.326 93.92 117.014 95H103.406ZM105.206 95V81.68H107.762V95H105.206ZM103.406 92.498H103.586V95H103.406C103.046 95 102.866 94.58 102.866 93.74C102.866 92.912 103.046 92.498 103.406 92.498ZM112.208 85.082L110.462 83.318L112.136 81.554L113.882 83.318L112.208 85.082ZM122.23 99.14C121.642 99.14 121.03 99.038 120.394 98.834C119.758 98.642 119.158 98.3 118.594 97.808L119.422 96.152C119.806 96.272 120.196 96.368 120.592 96.44C121 96.524 121.384 96.566 121.744 96.566C122.488 96.566 123.106 96.422 123.598 96.134C124.102 95.858 124.48 95.48 124.732 95H123.67C122.914 95 122.272 94.928 121.744 94.784C121.228 94.628 120.802 94.412 120.466 94.136C120.142 93.86 119.908 93.536 119.764 93.164C119.62 92.792 119.548 92.384 119.548 91.94C119.548 91.28 119.65 90.674 119.854 90.122C120.07 89.57 120.352 89.09 120.7 88.682C121.06 88.274 121.468 87.962 121.924 87.746C122.392 87.518 122.878 87.404 123.382 87.404C124.126 87.404 124.762 87.584 125.29 87.944C125.818 88.292 126.244 88.784 126.568 89.42C126.892 90.044 127.114 90.764 127.234 91.58C127.258 91.712 127.282 91.856 127.306 92.012C127.33 92.168 127.342 92.33 127.342 92.498H128.35V95H127.108C126.976 95.492 126.778 95.978 126.514 96.458C126.262 96.938 125.932 97.382 125.524 97.79C125.128 98.198 124.654 98.522 124.102 98.762C123.562 99.014 122.938 99.14 122.23 99.14ZM123.616 92.498H125.02C125.008 92.402 124.996 92.306 124.984 92.21C124.972 92.114 124.954 92.024 124.93 91.94C124.858 91.544 124.738 91.19 124.57 90.878C124.402 90.566 124.204 90.326 123.976 90.158C123.748 89.978 123.496 89.888 123.22 89.888C122.98 89.888 122.758 89.96 122.554 90.104C122.362 90.248 122.2 90.446 122.068 90.698C121.948 90.938 121.888 91.208 121.888 91.508C121.888 91.7 121.936 91.874 122.032 92.03C122.14 92.174 122.32 92.288 122.572 92.372C122.824 92.456 123.172 92.498 123.616 92.498ZM132.274 92.498H134.434V95H132.274V92.498ZM128.35 95V92.498H130.258V81.68H132.814V95H128.35ZM128.35 92.498H128.53V95H128.35C127.99 95 127.81 94.58 127.81 93.74C127.81 92.912 127.99 92.498 128.35 92.498ZM134.432 95V92.498H136.34V81.68H138.896V95H134.432ZM134.432 92.498H134.612V95H134.432C134.072 95 133.892 94.58 133.892 93.74C133.892 92.912 134.072 92.498 134.432 92.498ZM150.613 87.368C151.273 87.368 151.885 87.566 152.449 87.962C153.025 88.358 153.511 88.94 153.907 89.708C154.315 90.464 154.591 91.4 154.735 92.516L153.871 95.018C153.631 94.958 153.349 94.904 153.025 94.856C152.713 94.808 152.371 94.772 151.999 94.748C151.639 94.724 151.261 94.712 150.865 94.712C150.565 94.712 150.217 94.73 149.821 94.766C149.437 94.79 149.071 94.832 148.723 94.892C148.747 95.516 148.801 96.17 148.885 96.854C148.981 97.55 149.065 98.258 149.137 98.978C149.209 99.698 149.239 100.412 149.227 101.12C149.227 101.84 149.155 102.524 149.011 103.172L147.049 103.064C147.013 101.948 146.947 100.982 146.851 100.166C146.755 99.35 146.647 98.66 146.527 98.096C146.419 97.544 146.323 97.094 146.239 96.746C146.167 96.41 146.131 96.164 146.131 96.008C146.131 95.6 146.203 95.192 146.347 94.784C146.503 94.376 146.797 93.926 147.229 93.434C147.517 93.11 147.883 92.87 148.327 92.714C148.783 92.546 149.275 92.438 149.803 92.39C150.331 92.33 150.829 92.3 151.297 92.3C151.465 92.3 151.633 92.306 151.801 92.318C151.969 92.33 152.125 92.342 152.269 92.354C152.185 91.85 152.053 91.412 151.873 91.04C151.705 90.668 151.507 90.38 151.279 90.176C151.051 89.972 150.799 89.87 150.523 89.87C150.187 89.87 149.911 90.002 149.695 90.266C149.479 90.518 149.323 90.89 149.227 91.382L147.175 90.932C147.235 90.308 147.415 89.726 147.715 89.186C148.015 88.646 148.411 88.208 148.903 87.872C149.407 87.536 149.977 87.368 150.613 87.368ZM156.921 95L156.471 92.498H161.583C162.135 92.498 162.531 92.444 162.771 92.336C163.011 92.228 163.173 92.096 163.257 91.94L163.977 94.046C163.917 94.274 163.755 94.46 163.491 94.604C163.227 94.748 162.921 94.85 162.573 94.91C162.237 94.97 161.907 95 161.583 95H156.921ZM159.261 88.376L161.205 85.874L164.373 91.49C164.529 91.766 164.679 91.976 164.823 92.12C164.979 92.264 165.147 92.366 165.327 92.426C165.507 92.474 165.723 92.498 165.975 92.498H166.155V95H165.975C165.591 95 165.231 94.97 164.895 94.91C164.571 94.85 164.259 94.748 163.959 94.604C163.671 94.448 163.383 94.226 163.095 93.938C162.819 93.65 162.531 93.278 162.231 92.822L159.261 88.376ZM166.16 95V92.498H168.284C168.32 92.51 168.344 92.528 168.356 92.552C168.38 92.564 168.398 92.576 168.41 92.588C168.422 92.6 168.44 92.606 168.464 92.606C168.164 92.27 167.948 91.916 167.816 91.544C167.696 91.16 167.636 90.758 167.636 90.338C167.636 89.846 167.726 89.378 167.906 88.934C168.098 88.478 168.368 88.076 168.716 87.728C169.064 87.368 169.49 87.086 169.994 86.882C170.51 86.678 171.086 86.576 171.722 86.576C172.358 86.576 172.928 86.678 173.432 86.882C173.936 87.086 174.362 87.368 174.71 87.728C175.07 88.076 175.34 88.478 175.52 88.934C175.712 89.378 175.808 89.846 175.808 90.338C175.808 90.734 175.748 91.124 175.628 91.508C175.52 91.88 175.31 92.246 174.998 92.606C174.974 92.594 174.98 92.582 175.016 92.57C175.052 92.546 175.058 92.522 175.034 92.498H176.924V95H176.276C175.508 95 174.86 94.988 174.332 94.964C173.804 94.94 173.342 94.898 172.946 94.838C172.562 94.778 172.184 94.682 171.812 94.55C171.608 94.61 171.398 94.67 171.182 94.73C170.966 94.79 170.726 94.838 170.462 94.874C170.198 94.91 169.88 94.94 169.508 94.964C169.148 94.988 168.698 95 168.158 95H166.16ZM171.74 92.606C172.04 92.462 172.298 92.288 172.514 92.084C172.73 91.88 172.892 91.646 173 91.382C173.12 91.118 173.18 90.836 173.18 90.536C173.18 90.26 173.12 90.014 173 89.798C172.88 89.582 172.706 89.408 172.478 89.276C172.262 89.132 172.01 89.06 171.722 89.06C171.422 89.06 171.164 89.126 170.948 89.258C170.732 89.39 170.558 89.57 170.426 89.798C170.306 90.014 170.246 90.26 170.246 90.536C170.246 90.872 170.312 91.172 170.444 91.436C170.576 91.688 170.756 91.916 170.984 92.12C171.212 92.312 171.464 92.474 171.74 92.606ZM166.16 92.498H166.34V95H166.16C165.8 95 165.62 94.58 165.62 93.74C165.62 92.912 165.8 92.498 166.16 92.498ZM170.192 84.92L168.446 83.156L170.084 81.392L171.83 83.156L170.192 84.92ZM173.324 84.92L171.578 83.156L173.252 81.392L174.998 83.156L173.324 84.92ZM176.918 95V92.498H180.464C180.404 91.946 180.236 91.388 179.96 90.824C179.696 90.248 179.36 89.66 178.952 89.06L181.22 86.738C181.58 87.446 181.892 88.208 182.156 89.024C182.42 89.84 182.558 90.74 182.57 91.724C182.582 92.696 182.378 93.788 181.958 95H176.918ZM176.918 92.498H177.098V95H176.918C176.558 95 176.378 94.58 176.378 93.74C176.378 92.912 176.558 92.498 176.918 92.498ZM178.61 85.442L176.864 83.678L178.502 81.914L180.248 83.678L178.61 85.442ZM181.742 85.442L179.996 83.678L181.67 81.914L183.416 83.678L181.742 85.442Z" fill="white" />
            <path id="Vector_78" d="M192.61 110.51C191.779 109.75 191.071 108.867 190.51 107.89C189.803 107.012 189.237 106.031 188.83 104.98C189.663 105.741 190.374 106.624 190.94 107.6C191.646 108.476 192.21 109.458 192.61 110.51V110.51Z" fill="#0A7044" />
            <path id="Vector_79" d="M196.66 78.28C195.421 77.0214 194.312 75.6411 193.35 74.16C192.25 72.7808 191.282 71.3009 190.46 69.74C191.699 70.9986 192.808 72.3789 193.77 73.86C194.874 75.2362 195.842 76.7165 196.66 78.28V78.28Z" fill="#0A7044" />
            <path id="Vector_80" d="M196.23 105C196.08 105.11 194.58 103 192.94 100.18C192.11 98.8 191.38 97.54 190.87 96.62C190.552 96.1415 190.291 95.6281 190.09 95.09C190.24 94.99 191.74 97.15 193.38 99.91C194.21 101.29 194.94 102.55 195.46 103.47C195.777 103.947 196.036 104.461 196.23 105Z" fill="#0A7044" />
            <path id="Vector_81" d="M196.69 96.26C196.54 96.37 194.94 94.04 193.17 91.07C192.28 89.58 191.49 88.23 190.93 87.24C190.594 86.7239 190.312 86.1743 190.09 85.6C190.24 85.5 191.84 87.83 193.62 90.8C194.51 92.28 195.29 93.64 195.85 94.62C196.188 95.1346 196.47 95.6845 196.69 96.26V96.26Z" fill="#0A7044" />
            <path id="Vector_82" d="M196.68 87.6301C196.53 87.7401 194.92 85.3901 193.14 82.4101C192.24 80.9201 191.45 79.5501 190.89 78.5601C190.548 78.0426 190.263 77.4894 190.04 76.9101C190.19 76.8101 191.8 79.1501 193.58 82.1401C194.48 83.6301 195.27 84.9901 195.83 85.9901C196.176 86.5021 196.461 87.0524 196.68 87.6301V87.6301Z" fill="#0A7044" />
            <path id="Vector_83" d="M64.8903 76.1999C62.7395 75.9093 60.6158 75.4444 58.5403 74.8099C56.4199 74.3423 54.3401 73.7069 52.3203 72.9099C54.4711 73.2005 56.5948 73.6654 58.6703 74.2999C60.7912 74.7656 62.8712 75.401 64.8903 76.1999Z" fill="#263238" />
            <path id="Vector_84" d="M66.1 68.69C63.7522 66.2431 61.5325 63.6763 59.45 61C57.2313 58.4445 55.1484 55.7741 53.21 53C55.555 55.4529 57.7745 58.0228 59.86 60.7C62.0729 63.2568 64.1555 65.9235 66.1 68.69V68.69Z" fill="#263238" />
            <path id="Vector_85" d="M75.3707 65.0701C74.6494 63.3931 74.1875 61.6161 74.0007 59.8001C73.6392 58.0099 73.5649 56.1736 73.7807 54.3601C73.9307 54.3601 74.0707 56.7801 74.5107 59.7301C74.9507 62.6801 75.5207 65.0001 75.3707 65.0701Z" fill="#263238" />
        </g>
    </g>
</svg>