<svg width="428" height="211" viewBox="0 0 428 211" fill="none" xmlns="http://www.w3.org/2000/svg">
    <style>    
        #vacant {
            animation: 3s Infinite linear heartbeat;
            animation-delay: 0s, 1s;
        }
        
        @keyframes heartbeat {
            0% {
                transform: scale(1);
            }
        
            10% {
                transform: scale(1.1);
            }
        
            30% {
                transform: scale(1);
            }
        
            40% {
                transform: scale(1);
            }
        
            50% {
                transform: scale(1.1);
            }
        
            60% {
                transform: scale(1);
            }
        
            100% {
                transform: scale(1);
            }
        }
        </style>
    <g id="Hiring-pana">
        <g id="freepik--Desk--inject-2">
            <path id="Vector" d="M397.16 62.51H291.29V83.03H397.16V62.51Z" fill="#455A64" />
            <path id="Vector_2" d="M225.32 49.8701L288.01 49.8701V46.8201L225.32 46.8201V49.8701Z" fill="#263238" />
            <path id="Vector_3" d="M297.72 49.86L309.48 5.80005H260.53L249.88 49.86H297.72Z" fill="#263238" />
            <path id="Vector_4" d="M252.81 46.5301H296.54L306.72 7.83008H262.77L252.81 46.5301Z" fill="#E0E0E0" />
            <path id="Vector_5" d="M203.69 58.8901H200.52V210.05H203.69V58.8901Z" fill="#455A64" />
            <path id="Vector_6" d="M206.859 59.3201H203.689V210.05H206.859V59.3201Z" fill="#263238" />
            <path id="Vector_7" d="M398.75 58.8901H395.58V210.05H398.75V58.8901Z" fill="#455A64" />
            <path id="Vector_8" d="M401.909 59.3201H398.739V210.05H401.909V59.3201Z" fill="#263238" />
            <path id="Vector_9" d="M427.34 50.1101H186.85V62.5101H427.34V50.1101Z" fill="#455A64" />
            <path id="Vector_10" d="M348.94 71.35C348.94 71.8168 348.801 72.273 348.542 72.6611C348.283 73.0492 347.914 73.3517 347.483 73.5304C347.052 73.709 346.577 73.7557 346.119 73.6646C345.662 73.5736 345.241 73.3488 344.911 73.0188C344.581 72.6887 344.356 72.2682 344.265 71.8104C344.174 71.3526 344.221 70.8781 344.399 70.4469C344.578 70.0156 344.88 69.647 345.269 69.3877C345.657 69.1284 346.113 68.99 346.58 68.99C347.206 68.99 347.806 69.2386 348.249 69.6812C348.691 70.1238 348.94 70.7241 348.94 71.35V71.35Z" fill="#263238" />
        </g>
        <g id="freepik--Chair--inject-2">
            <path id="Vector_11" d="M162.61 116.47L141.06 28.7799C140.703 27.3101 140.684 25.7785 141.005 24.3004C141.325 22.8222 141.977 21.436 142.911 20.2462C143.844 19.0563 145.036 18.0938 146.396 17.431C147.755 16.7683 149.247 16.4226 150.76 16.4199H201.69C203.899 16.4232 206.045 17.1578 207.792 18.5092C209.54 19.8606 210.791 21.7527 211.35 23.8899L234 111.08C234.377 112.547 234.416 114.081 234.114 115.565C233.812 117.049 233.177 118.446 232.256 119.649C231.335 120.852 230.153 121.83 228.799 122.509C227.445 123.188 225.955 123.551 224.44 123.57L172.44 124.07C170.184 124.097 167.986 123.362 166.201 121.982C164.417 120.602 163.151 118.66 162.61 116.47V116.47Z" fill="#0A7044" />
            <path id="Vector_12" d="M151.07 16.3799C149.462 16.3798 147.875 16.7449 146.428 17.4477C144.981 18.1506 143.713 19.1728 142.72 20.4372C141.726 21.7016 141.032 23.1753 140.691 24.7469C140.35 26.3186 140.37 27.9472 140.75 29.5099L163.7 124.11H180.81L151.07 16.3799Z" fill="#0A7044" />
            <path id="Vector_13" d="M247.46 96.7397H196.88C191.584 96.7397 187.29 101.033 187.29 106.33V114.56C187.29 119.856 191.584 124.15 196.88 124.15H247.46C252.756 124.15 257.05 119.856 257.05 114.56V106.33C257.05 101.033 252.756 96.7397 247.46 96.7397Z" fill="#0A7044" />
            <g id="Group" opacity="0.4">
                <path id="Vector_14" d="M196.88 124.13L190.72 96.7199H173.26L151.07 16.3599C149.462 16.3597 147.875 16.7249 146.428 17.4277C144.981 18.1306 143.713 19.1528 142.72 20.4172C141.726 21.6816 141.032 23.1553 140.691 24.7269C140.35 26.2986 140.37 27.9272 140.75 29.4899L163.7 124.09H164.48L196.88 124.13Z" fill="black" />
            </g>
            <path id="Vector_15" d="M238.25 96.74C238.25 96.88 223.85 97 206.09 97C188.33 97 173.92 96.88 173.92 96.74C173.92 96.6 188.32 96.48 206.09 96.48C223.86 96.48 238.25 96.59 238.25 96.74Z" fill="#E0E0E0" />
            <path id="Vector_16" d="M178 51.4498C177.849 51.9588 177.849 52.5008 178 53.0098C178.1 53.2614 178.25 53.4893 178.443 53.6788C178.636 53.8683 178.867 54.0151 179.12 54.1097C179.432 54.1926 179.761 54.1808 180.065 54.0757C180.37 53.9706 180.636 53.777 180.83 53.5197C181.048 53.2819 181.19 52.9853 181.24 52.6669C181.29 52.3486 181.245 52.0226 181.11 51.7298C180.973 51.4959 180.786 51.2945 180.563 51.1392C180.341 50.9839 180.087 50.8783 179.82 50.8297C179.299 50.7543 178.767 50.8343 178.29 51.0598C178.29 51.0598 178.35 50.8898 178.61 50.7198C178.993 50.4945 179.44 50.403 179.88 50.4598C180.213 50.4915 180.534 50.598 180.82 50.7712C181.105 50.9443 181.348 51.1797 181.53 51.4598C181.708 51.8392 181.774 52.2616 181.721 52.6773C181.667 53.093 181.495 53.4846 181.226 53.8061C180.957 54.1276 180.602 54.3656 180.202 54.492C179.803 54.6184 179.375 54.6281 178.97 54.5197C178.657 54.3973 178.376 54.2048 178.149 53.9569C177.922 53.709 177.755 53.4124 177.66 53.0898C177.516 52.6685 177.516 52.211 177.66 51.7898C177.88 51.5498 178 51.4398 178 51.4498Z" fill="#E0E0E0" />
            <path id="Vector_17" d="M177.36 64.4699C177.024 63.9443 176.828 63.3421 176.79 62.7199C176.555 61.2332 176.707 59.7113 177.23 58.2999C177.751 56.8888 178.621 55.6329 179.76 54.6499C180.197 54.1977 180.735 53.8551 181.33 53.6499C181.38 53.7199 180.79 54.0999 180.01 54.8799C178.99 55.8822 178.205 57.0978 177.71 58.4395C177.216 59.7811 177.024 61.2156 177.15 62.6399C177.24 63.7799 177.44 64.4499 177.36 64.4699Z" fill="#E0E0E0" />
            <path id="Vector_18" d="M173.351 44.1699C173.673 45.6244 174.201 47.0253 174.921 48.3299C175.781 49.5443 176.816 50.6258 177.991 51.5399C177.991 51.5999 177.461 51.4399 176.761 50.9699C175.842 50.3531 175.065 49.5488 174.481 48.6099C173.888 47.6739 173.496 46.6251 173.331 45.5299C173.215 45.0829 173.222 44.6133 173.351 44.1699V44.1699Z" fill="#E0E0E0" />
            <path id="Vector_19" d="M170.9 52.1799C170.98 52.0499 172.33 52.88 174.19 53.26C176.05 53.64 177.62 53.4499 177.64 53.6099C176.503 54.048 175.253 54.1042 174.08 53.7699C172.874 53.6051 171.756 53.0461 170.9 52.1799V52.1799Z" fill="#E0E0E0" />
            <path id="Vector_20" d="M204.69 51.4498C204.539 51.9588 204.539 52.5008 204.69 53.0098C204.789 53.2614 204.94 53.4893 205.133 53.6788C205.326 53.8683 205.556 54.0151 205.81 54.1098C206.121 54.1927 206.45 54.1808 206.755 54.0757C207.059 53.9706 207.326 53.7771 207.52 53.5198C207.737 53.2819 207.88 52.9853 207.929 52.667C207.979 52.3486 207.934 52.0227 207.8 51.7298C207.663 51.4975 207.477 51.2971 207.257 51.1419C207.036 50.9867 206.785 50.8803 206.52 50.8298C205.995 50.7536 205.459 50.8336 204.98 51.0598C204.98 51.0598 205.05 50.8898 205.31 50.7198C205.688 50.4916 206.132 50.3998 206.57 50.4598C206.902 50.4916 207.223 50.5981 207.509 50.7712C207.795 50.9443 208.038 51.1797 208.22 51.4598C208.398 51.8392 208.464 52.2617 208.41 52.6774C208.356 53.093 208.185 53.4847 207.916 53.8062C207.647 54.1277 207.291 54.3656 206.892 54.4921C206.492 54.6185 206.065 54.6281 205.66 54.5198C205.347 54.3974 205.066 54.2048 204.839 53.9569C204.612 53.709 204.444 53.4124 204.35 53.0898C204.205 52.6686 204.205 52.2111 204.35 51.7898C204.54 51.5498 204.67 51.4398 204.69 51.4498Z" fill="#E0E0E0" />
            <path id="Vector_21" d="M204 64.4699C203.67 63.9417 203.474 63.341 203.43 62.7199C203.2 61.2306 203.354 59.7071 203.88 58.2945C204.405 56.8819 205.283 55.6272 206.43 54.6499C206.862 54.1967 207.397 53.8538 207.99 53.6499C207.99 53.7199 207.45 54.0999 206.68 54.8799C205.656 55.8797 204.867 57.0946 204.371 58.4367C203.875 59.7788 203.683 61.2146 203.81 62.6399C203.89 63.7799 204.09 64.4499 204 64.4699Z" fill="#E0E0E0" />
            <path id="Vector_22" d="M200 44.1699C200.322 45.6244 200.851 47.0253 201.57 48.3299C202.431 49.5443 203.466 50.6258 204.64 51.5399C204.64 51.5999 204.11 51.4399 203.41 50.9699C202.492 50.3531 201.715 49.5488 201.13 48.6099C200.538 47.6739 200.146 46.6251 199.98 45.5299C199.871 45.0822 199.878 44.6142 200 44.1699V44.1699Z" fill="#E0E0E0" />
            <path id="Vector_23" d="M197.55 52.1799C197.63 52.0499 198.98 52.88 200.84 53.26C202.7 53.64 204.27 53.4499 204.29 53.6099C203.155 54.048 201.909 54.1042 200.74 53.7699C199.53 53.6065 198.409 53.0475 197.55 52.1799V52.1799Z" fill="#E0E0E0" />
            <path id="Vector_24" d="M250.291 131.83H168.521C167.46 131.83 166.442 131.408 165.692 130.658C164.942 129.908 164.521 128.891 164.521 127.83C164.521 126.769 164.942 125.752 165.692 125.001C166.442 124.251 167.46 123.83 168.521 123.83H250.291C251.351 123.83 252.369 124.251 253.119 125.001C253.869 125.752 254.291 126.769 254.291 127.83C254.291 128.891 253.869 129.908 253.119 130.658C252.369 131.408 251.351 131.83 250.291 131.83Z" fill="#263238" />
            <path id="Vector_25" d="M174.271 131.83L160.811 210.05H164.491L182.191 131.83H174.271Z" fill="#263238" />
            <path id="Vector_26" d="M206 131.83L191.69 210.05H195.38L213.92 131.83H206Z" fill="#263238" />
            <path id="Vector_27" d="M241.09 131.83L257.05 210.05H253.36L233.17 131.83H241.09Z" fill="#263238" />
        </g>
        <g id="vacant">
            <path id="Vector_28" d="M119.12 69.96L0.80957 47.47L9.21957 4.51001L127.54 27L137.3 50.7L119.12 69.96Z" fill="#0A7044" />
            <g id="Group_2" opacity="0.3">
                <path id="Vector_29" d="M119.12 69.96L0.80957 47.47L9.21957 4.51001L127.54 27L137.3 50.7L119.12 69.96Z" fill="black" />
            </g>
            <path id="Vector_30" d="M117.52 66.13L1.71973 43.45L10.1297 0.48999L125.94 23.18L135.7 46.88L117.52 66.13Z" fill="#0A7044" />
            <path id="vacant_2" d="M33.5034 45.5085C32.4974 45.3038 31.4326 44.861 30.3092 44.18C29.2039 43.5265 28.232 42.6859 27.3934 41.658L29.5648 38.8853C30.3779 39.3364 31.102 39.698 31.7371 39.9701C32.3905 40.2698 33.0145 40.48 33.609 40.601C34.8894 40.8615 36.0633 40.8265 37.1306 40.496C38.2208 40.1701 39.131 39.6171 39.8611 38.8371C40.5913 38.057 41.0657 37.1296 41.2844 36.055C41.4286 35.3461 41.4466 34.7307 41.3385 34.2087C41.2305 33.6867 41.0629 33.1644 40.8358 32.642C40.6087 32.1196 40.3613 31.5216 40.0936 30.848L45.9129 35.4251C45.8617 35.6766 45.8105 35.9281 45.7594 36.1796C45.7082 36.4311 45.657 36.6827 45.6058 36.9342C45.4477 37.7116 45.1589 38.5458 44.7395 39.4367C44.3202 40.3276 43.7636 41.1907 43.0698 42.0258C42.3989 42.8656 41.5934 43.6065 40.6532 44.2486C39.7129 44.8907 38.6475 45.3288 37.457 45.5628C36.2618 45.8196 34.9439 45.8015 33.5034 45.5085ZM48.1571 39.6677C47.3568 39.5049 46.6186 39.2713 45.9423 38.9671C45.2889 38.6674 44.6975 38.2971 44.1682 37.8561C43.6435 37.3921 43.1602 36.8414 42.7185 36.2039C42.2996 35.571 41.8902 34.8329 41.4903 33.9895L38.3487 27.1356L43.0704 23.2387L45.9387 31.7872C46.1836 32.4561 46.4174 33.0037 46.6402 33.43C46.8677 33.8335 47.1732 34.1457 47.5569 34.3666C47.9406 34.5875 48.4639 34.7654 49.127 34.9003L49.47 34.9701L48.5001 39.7375L48.1571 39.6677ZM48.5057 39.7386L49.4756 34.9713L53.3855 35.7667C53.172 35.2947 53.0275 34.7176 52.952 34.0356C52.8764 33.3535 52.9201 32.6123 53.0829 31.812C53.3853 30.3258 53.9887 29.1151 54.8933 28.1801C55.8254 27.2267 56.9784 26.5922 58.3523 26.2764C59.7308 25.9378 61.2546 25.9383 62.9238 26.2779C63.9756 26.4919 64.9789 26.827 65.9338 27.2832C66.8933 27.7165 67.7405 28.2341 68.4752 28.836L65.6416 32.5813C65.0572 32.1766 64.4566 31.852 63.8396 31.6075C63.2502 31.3447 62.6239 31.1458 61.9608 31.0109C60.7947 30.7737 59.8563 30.8804 59.1455 31.3311C58.4622 31.7635 58.0345 32.4027 57.8624 33.2487C57.7507 33.7975 57.8129 34.3697 58.0489 34.9654C58.2895 35.5382 58.7546 36.0614 59.444 36.535C60.1609 36.9904 61.1481 37.3461 62.4057 37.6019L66.6929 38.4742L65.723 43.2415L48.5057 39.7386ZM49.4756 34.9713L49.8186 35.041L48.8487 39.8084L48.5057 39.7386C47.8197 39.599 47.6396 38.729 47.9652 37.1285C48.2862 35.5508 48.7897 34.8317 49.4756 34.9713ZM63.6343 23.1365L60.9913 19.0985L64.8648 16.3863L67.5078 20.4243L63.6343 23.1365ZM76.3787 45.4094C75.2126 45.1722 74.255 44.8464 73.5059 44.4321C72.7568 44.0177 72.1819 43.5079 71.7812 42.9025C71.3805 42.2971 71.1403 41.6054 71.0605 40.8272C70.9854 40.0261 71.0478 39.134 71.2479 38.1508L75.1973 18.7385L80.0676 19.7293L76.4461 37.5297C76.3437 38.0327 76.2896 38.4741 76.2838 38.8539C76.2779 39.2337 76.3432 39.5565 76.4796 39.8224C76.6389 40.0929 76.8807 40.3088 77.2051 40.47C77.5523 40.6359 78.0117 40.777 78.5834 40.8933L79.921 41.1654L78.951 45.9328L76.3787 45.4094ZM101.999 50.622C100.536 50.3242 99.3061 49.9312 98.3102 49.4428C97.3417 48.9363 96.5312 48.4142 95.8786 47.8766C95.2306 47.3162 94.6695 46.7972 94.1952 46.3197L97.4775 43.8801C97.9293 44.234 98.5162 44.5677 99.2382 44.8813C99.9877 45.1766 100.82 45.4174 101.734 45.6034L105.987 46.4687C106.046 45.2425 105.933 44.0409 105.649 42.8639C105.392 41.6687 105.014 40.4845 104.515 39.3114L109.729 35.8006C110.05 36.9136 110.314 38.0745 110.521 39.2833C110.732 40.4692 110.81 41.7233 110.755 43.0456C110.705 44.345 110.461 45.7239 110.021 47.1822C109.581 48.6405 108.874 50.1872 107.898 51.8222L101.999 50.622ZM78.9513 45.9328L79.9212 41.1655L83.6253 41.9191C83.8556 41.4897 84.086 41.0008 84.3166 40.4525C84.5519 39.8813 84.7575 39.2802 84.9335 38.6493C85.137 38.0001 85.2971 37.3303 85.4138 36.6397L91.5049 35.8431C90.9099 37.2459 90.3545 38.4545 89.8386 39.4686C89.3227 40.4828 88.7912 41.3986 88.2439 42.2159C87.7013 43.0103 87.1038 43.7817 86.4516 44.53C85.7993 45.2783 85.0255 46.0971 84.1302 46.9865L78.9513 45.9328ZM89.995 48.1797C88.4402 47.8634 87.1305 47.4541 86.066 46.9517C85.029 46.4312 84.1932 45.9159 83.5589 45.4059C82.9291 44.8729 82.4616 44.4206 82.1562 44.049L84.8159 40.9827C85.3589 41.4741 86.0324 41.9088 86.8365 42.2867C87.6453 42.6417 88.5527 42.9216 89.5588 43.1263L93.2286 43.8729C93.4402 43.535 93.6637 43.0804 93.8989 42.5092C94.1342 41.938 94.3445 41.314 94.5298 40.6374C94.7379 39.9654 94.9004 39.2841 95.0171 38.5935L101.142 37.8038C100.547 39.2067 99.9921 40.4153 99.4762 41.4294C98.9603 42.4436 98.4173 43.357 97.8472 44.1697C97.3045 44.9641 96.7071 45.7355 96.0548 46.4838C95.4025 47.2321 94.6287 48.0509 93.7335 48.9403L89.995 48.1797ZM79.9212 41.1655L80.2642 41.2353L79.2943 46.0026L78.9513 45.9328C78.2653 45.7933 78.0852 44.9232 78.4108 43.3227C78.7318 41.745 79.2353 41.0259 79.9212 41.1655ZM100.105 29.9135L97.3931 25.8616L101.274 23.1151L103.91 27.1874L100.105 29.9135ZM96.0939 34.7051L93.4579 30.6328L97.2627 27.9067L99.9058 31.9447L96.0939 34.7051ZM102.062 35.9193L99.4256 31.847L103.299 29.1348L105.942 33.1728L102.062 35.9193Z" fill="white" />
        </g>
    </g>
</svg>