<svg id="visual" viewBox="0 0 900 600" width="900" height="600" xmlns="http://www.w3.org/2000/svg" xmlns:xlink="http://www.w3.org/1999/xlink" version="1.1">
    <g transform="translate(422.0680781906159 288.37458271053106)">
        <path d="M106.2 -169.4C147 -160.3 196.1 -150.9 229.7 -122.6C263.4 -94.3 281.7 -47.2 277.7 -2.3C273.6 42.5 247.2 85 212.9 112.1C178.6 139.3 136.3 151 99.5 167.3C62.7 183.5 31.3 204.3 -6.2 215C-43.7 225.6 -87.3 226.3 -123.3 209.5C-159.2 192.8 -187.4 158.6 -196.8 120.8C-206.3 83 -196.9 41.5 -202.9 -3.5C-209 -48.5 -230.5 -97 -219.1 -131.4C-207.7 -165.7 -163.3 -185.9 -121.3 -194.3C-79.3 -202.7 -39.7 -199.4 -3.5 -193.3C32.7 -187.2 65.3 -178.5 106.2 -169.4" fill="#0A7044"></path>
    </g>
</svg>