<svg width="440" height="498" viewBox="0 0 440 498" fill="none" xmlns="http://www.w3.org/2000/svg">
<path d="M82.8263 483.434C48.2263 469.634 25.6263 428.734 16.2263 388.334C6.92626 347.934 10.9263 307.934 7.22626 265.834C3.62626 223.734 -7.47372 179.634 8.02628 149.834C23.5263 120.134 65.6263 104.834 103.926 78.0341C142.126 51.3341 176.526 13.1341 216.626 3.03409C256.826 -7.06591 302.826 10.9341 346.126 34.7341C389.426 58.6341 430.026 88.2341 438.326 128.134C446.526 167.934 422.426 217.934 411.226 261.434C399.926 304.934 401.526 341.934 395.026 384.834C388.526 427.634 373.926 476.434 341.826 491.734C309.826 507.034 260.326 489.034 212.226 486.534C164.126 484.134 117.526 497.234 82.8263 483.434Z" fill="#F1F1F1"/>
</svg>
