<svg id="visual" viewBox="0 0 900 600" width="900" height="600" xmlns="http://www.w3.org/2000/svg" xmlns:xlink="http://www.w3.org/1999/xlink" version="1.1"><g transform="translate(446.8812208121261 285.0018516917544)"><path d="M106.3 -182.6C144.3 -162.2 186 -146.8 210.8 -117.3C235.5 -87.7 243.3 -43.8 244.6 0.7C245.9 45.3 240.7 90.7 220.7 128.5C200.7 166.3 165.9 196.6 126.6 221.9C87.3 247.3 43.7 267.6 -3.2 273.1C-50 278.6 -100 269.2 -127.1 236.8C-154.1 204.5 -158.3 149.1 -175.3 105.8C-192.3 62.5 -222.1 31.3 -233.3 -6.5C-244.5 -44.2 -237 -88.3 -218.2 -128.5C-199.3 -168.6 -169.2 -204.7 -130.9 -224.9C-92.7 -245.2 -46.3 -249.6 -6.1 -239C34.2 -228.5 68.3 -203 106.3 -182.6" fill="#FAFAFA"></path></g></svg>